# xmcd CD database file
#
# Track frame offsets:
#	150
#	12660
#	24078
#	35270
#	50617
#	65922
#	76630
#	87520
#	100273
#	110765
#	119848
#	131458
#	143543
#	156515
#
# Disc length: 2236 seconds
#
# Revision: 0
# Processed by: cddbd v1.4b42PL0 Copyright (c) Steve Scherf et al.
# Submitted via: CDex 1.40Beta5
#
DISCID=be08ba0e
DTITLE=Sonny Boy Williamson - 28 Great Blues Songs - CD 1/2
DYEAR=1994
DGENRE=Blues
TTITLE0="99"
TTITLE1=Born Blind
TTITLE2=Bring It on Home
TTITLE3=Cross My Heart
TTITLE4=Decoration Day
TTITLE5=Fattening Frogs for Snakes
TTITLE6=I Don't Know Why
TTITLE7=Keep It to Yourself
TTITLE8=Let Your Conscience Be Your Guide
TTITLE9=One Way Out
TTITLE10=The Key to the Door
TTITLE11=Trust Me Baby
TTITLE12=Work With Me
TTITLE13=Your Funeral - My Trial
EXTD=YEAR: 1994 ID3G:   0
EXTT0=
EXTT1=
EXTT2=
EXTT3=
EXTT4=
EXTT5=
EXTT6=
EXTT7=
EXTT8=
EXTT9=
EXTT10=
EXTT11=
EXTT12=
EXTT13=
PLAYORDER=
